HIERARCHY
ROOT mixamorig:Hips
{
	OFFSET 0.000000 99.672096 0.000000
	CHANNELS 6 Xposition Yposition Zposition Xrotation Yrotation Zrotation
	JOINT mixamorig:Spine
	{
		OFFSET 0.000000 9.923500 -1.227300
		CHANNELS 3 Xrotation Yrotation Zrotation
		JOINT mixamorig:Spine1
		{
			OFFSET -0.000100 11.645401 -1.422300
			CHANNELS 3 Xrotation Yrotation Zrotation
			JOINT mixamorig:Spine2
			{
				OFFSET 0.000100 13.360199 -1.626500
				CHANNELS 3 Xrotation Yrotation Zrotation
				JOINT mixamorig:Neck
				{
					OFFSET 0.000000 15.032501 0.792900
					CHANNELS 3 Xrotation Yrotation Zrotation
					JOINT mixamorig:Head
					{
						OFFSET 0.000000 10.321808 3.142400
						CHANNELS 3 Xrotation Yrotation Zrotation
						JOINT mixamorig:HeadTop_End
						{
							OFFSET 0.000200 18.474701 6.636400
							CHANNELS 3 Xrotation Yrotation Zrotation
							End Site
							{
								OFFSET 0.000000 14.732208 0.000000
							}
						}
						JOINT mixamorig:LeftEye
						{
							OFFSET 2.947900 7.681702 9.120700
							CHANNELS 3 Xrotation Yrotation Zrotation
							End Site
							{
								OFFSET 0.000000 14.732208 0.000000
							}
						}
						JOINT mixamorig:RightEye
						{
							OFFSET -2.944500 7.681702 9.120500
							CHANNELS 3 Xrotation Yrotation Zrotation
							End Site
							{
								OFFSET 0.000000 14.732208 0.000000
							}
						}
					}
				}
				JOINT mixamorig:LeftShoulder
				{
					OFFSET 6.105800 9.110397 0.705600
					CHANNELS 3 Xrotation Yrotation Zrotation
					JOINT mixamorig:LeftArm
					{
						OFFSET 12.654999 -0.265900 -2.600900
						CHANNELS 3 Xrotation Yrotation Zrotation
						JOINT mixamorig:LeftForeArm
						{
							OFFSET 27.404697 0.000000 0.000000
							CHANNELS 3 Xrotation Yrotation Zrotation
							JOINT mixamorig:LeftHand
							{
								OFFSET 27.614502 0.000000 0.000000
								CHANNELS 3 Xrotation Yrotation Zrotation
								JOINT mixamorig:LeftHandMiddle1
								{
									OFFSET 12.775497 0.000000 0.000000
									CHANNELS 3 Xrotation Yrotation Zrotation
									JOINT mixamorig:LeftHandMiddle2
									{
										OFFSET 3.613998 0.000000 0.000000
										CHANNELS 3 Xrotation Yrotation Zrotation
										JOINT mixamorig:LeftHandMiddle3
										{
											OFFSET 3.459801 0.000000 0.000000
											CHANNELS 3 Xrotation Yrotation Zrotation
											JOINT mixamorig:LeftHandMiddle4
											{
												OFFSET 3.680199 0.000000 0.000000
												CHANNELS 3 Xrotation Yrotation Zrotation
												End Site
												{
													OFFSET 0.000000 3.680206 0.000190
												}
											}
										}
									}
								}
								JOINT mixamorig:LeftHandThumb1
								{
									OFFSET 3.788803 -2.167160 3.002988
									CHANNELS 3 Xrotation Yrotation Zrotation
									JOINT mixamorig:LeftHandThumb2
									{
										OFFSET 3.675407 -2.121994 2.121996
										CHANNELS 3 Xrotation Yrotation Zrotation
										JOINT mixamorig:LeftHandThumb3
										{
											OFFSET 3.394394 -1.959747 1.959755
											CHANNELS 3 Xrotation Yrotation Zrotation
											JOINT mixamorig:LeftHandThumb4
											{
												OFFSET 2.679367 -1.546936 1.546931
												CHANNELS 3 Xrotation Yrotation Zrotation
												End Site
												{
													OFFSET -0.000023 3.459045 0.000107
												}
											}
										}
									}
								}
								JOINT mixamorig:LeftHandIndex1
								{
									OFFSET 12.266602 -0.231842 2.822088
									CHANNELS 3 Xrotation Yrotation Zrotation
									JOINT mixamorig:LeftHandIndex2
									{
										OFFSET 3.891998 0.000000 0.000000
										CHANNELS 3 Xrotation Yrotation Zrotation
										JOINT mixamorig:LeftHandIndex3
										{
											OFFSET 3.415199 0.000000 0.000000
											CHANNELS 3 Xrotation Yrotation Zrotation
											JOINT mixamorig:LeftHandIndex4
											{
												OFFSET 3.078003 0.000000 0.000000
												CHANNELS 3 Xrotation Yrotation Zrotation
												End Site
												{
													OFFSET 0.000000 3.078003 0.000159
												}
											}
										}
									}
								}
								JOINT mixamorig:LeftHandRing1
								{
									OFFSET 12.147003 0.010010 -2.216599
									CHANNELS 3 Xrotation Yrotation Zrotation
									JOINT mixamorig:LeftHandRing2
									{
										OFFSET 3.601196 0.000000 0.000000
										CHANNELS 3 Xrotation Yrotation Zrotation
										JOINT mixamorig:LeftHandRing3
										{
											OFFSET 3.307297 0.000000 0.000000
											CHANNELS 3 Xrotation Yrotation Zrotation
											JOINT mixamorig:LeftHandRing4
											{
												OFFSET 3.660103 0.000000 0.000000
												CHANNELS 3 Xrotation Yrotation Zrotation
												End Site
												{
													OFFSET 0.000000 3.660095 0.000189
												}
											}
										}
									}
								}
								JOINT mixamorig:LeftHandPinky1
								{
									OFFSET 10.908203 -0.226151 -4.725812
									CHANNELS 3 Xrotation Yrotation Zrotation
									JOINT mixamorig:LeftHandPinky2
									{
										OFFSET 4.136703 0.000000 0.000000
										CHANNELS 3 Xrotation Yrotation Zrotation
										JOINT mixamorig:LeftHandPinky3
										{
											OFFSET 2.594803 0.000000 0.000000
											CHANNELS 3 Xrotation Yrotation Zrotation
											JOINT mixamorig:LeftHandPinky4
											{
												OFFSET 2.923897 0.000000 0.000000
												CHANNELS 3 Xrotation Yrotation Zrotation
												End Site
												{
													OFFSET 0.000000 2.923904 0.000151
												}
											}
										}
									}
								}
							}
						}
					}
				}
				JOINT mixamorig:RightShoulder
				{
					OFFSET -6.105700 9.110504 0.705600
					CHANNELS 3 Xrotation Yrotation Zrotation
					JOINT mixamorig:RightArm
					{
						OFFSET -12.655001 -0.266006 -2.600900
						CHANNELS 3 Xrotation Yrotation Zrotation
						JOINT mixamorig:RightForeArm
						{
							OFFSET -27.404697 0.000000 0.000000
							CHANNELS 3 Xrotation Yrotation Zrotation
							JOINT mixamorig:RightHand
							{
								OFFSET -27.614502 0.000000 0.000000
								CHANNELS 3 Xrotation Yrotation Zrotation
								JOINT mixamorig:RightHandMiddle1
								{
									OFFSET -12.775497 0.000000 0.000000
									CHANNELS 3 Xrotation Yrotation Zrotation
									JOINT mixamorig:RightHandMiddle2
									{
										OFFSET -3.613998 0.000000 0.000000
										CHANNELS 3 Xrotation Yrotation Zrotation
										JOINT mixamorig:RightHandMiddle3
										{
											OFFSET -3.459801 0.000000 0.000000
											CHANNELS 3 Xrotation Yrotation Zrotation
											JOINT mixamorig:RightHandMiddle4
											{
												OFFSET -3.680199 0.000000 0.000000
												CHANNELS 3 Xrotation Yrotation Zrotation
												End Site
												{
													OFFSET 0.000000 3.680206 0.000190
												}
											}
										}
									}
								}
								JOINT mixamorig:RightHandThumb1
								{
									OFFSET -3.788803 -2.167160 3.002988
									CHANNELS 3 Xrotation Yrotation Zrotation
									JOINT mixamorig:RightHandThumb2
									{
										OFFSET -3.675407 -2.121994 2.121996
										CHANNELS 3 Xrotation Yrotation Zrotation
										JOINT mixamorig:RightHandThumb3
										{
											OFFSET -3.394394 -1.959747 1.959755
											CHANNELS 3 Xrotation Yrotation Zrotation
											JOINT mixamorig:RightHandThumb4
											{
												OFFSET -2.679367 -1.546936 1.546931
												CHANNELS 3 Xrotation Yrotation Zrotation
												End Site
												{
													OFFSET 0.000023 3.459045 0.000107
												}
											}
										}
									}
								}
								JOINT mixamorig:RightHandIndex1
								{
									OFFSET -12.266602 -0.231842 2.822088
									CHANNELS 3 Xrotation Yrotation Zrotation
									JOINT mixamorig:RightHandIndex2
									{
										OFFSET -3.891998 0.000000 0.000000
										CHANNELS 3 Xrotation Yrotation Zrotation
										JOINT mixamorig:RightHandIndex3
										{
											OFFSET -3.415199 0.000000 0.000000
											CHANNELS 3 Xrotation Yrotation Zrotation
											JOINT mixamorig:RightHandIndex4
											{
												OFFSET -3.078003 0.000000 0.000000
												CHANNELS 3 Xrotation Yrotation Zrotation
												End Site
												{
													OFFSET 0.000000 3.078003 0.000159
												}
											}
										}
									}
								}
								JOINT mixamorig:RightHandRing1
								{
									OFFSET -12.147003 0.010010 -2.216599
									CHANNELS 3 Xrotation Yrotation Zrotation
									JOINT mixamorig:RightHandRing2
									{
										OFFSET -3.601204 0.000000 0.000000
										CHANNELS 3 Xrotation Yrotation Zrotation
										JOINT mixamorig:RightHandRing3
										{
											OFFSET -3.307297 0.000000 0.000000
											CHANNELS 3 Xrotation Yrotation Zrotation
											JOINT mixamorig:RightHandRing4
											{
												OFFSET -3.660103 0.000000 0.000000
												CHANNELS 3 Xrotation Yrotation Zrotation
												End Site
												{
													OFFSET 0.000000 3.660095 0.000189
												}
											}
										}
									}
								}
								JOINT mixamorig:RightHandPinky1
								{
									OFFSET -10.908203 -0.226151 -4.725812
									CHANNELS 3 Xrotation Yrotation Zrotation
									JOINT mixamorig:RightHandPinky2
									{
										OFFSET -4.136703 0.000000 0.000000
										CHANNELS 3 Xrotation Yrotation Zrotation
										JOINT mixamorig:RightHandPinky3
										{
											OFFSET -2.594803 0.000000 0.000000
											CHANNELS 3 Xrotation Yrotation Zrotation
											JOINT mixamorig:RightHandPinky4
											{
												OFFSET -2.923897 0.000000 0.000000
												CHANNELS 3 Xrotation Yrotation Zrotation
												End Site
												{
													OFFSET 0.000000 2.923904 0.000151
												}
											}
										}
									}
								}
							}
						}
					}
				}
			}
		}
	}
	JOINT mixamorig:RightUpLeg
	{
		OFFSET -9.124500 -6.656403 -0.055400
		CHANNELS 3 Xrotation Yrotation Zrotation
		JOINT mixamorig:RightLeg
		{
			OFFSET -0.244700 -40.595402 -0.514500
			CHANNELS 3 Xrotation Yrotation Zrotation
			JOINT mixamorig:RightFoot
			{
				OFFSET 0.244700 -42.047901 -2.060200
				CHANNELS 3 Xrotation Yrotation Zrotation
				JOINT mixamorig:RightToeBase
				{
					OFFSET -0.373400 -10.492200 12.640700
					CHANNELS 3 Xrotation Yrotation Zrotation
					JOINT mixamorig:RightToe_End
					{
						OFFSET 0.000000 0.000000 9.992501
						CHANNELS 3 Xrotation Yrotation Zrotation
						End Site
						{
							OFFSET 0.000000 9.992500 0.000000
						}
					}
				}
			}
		}
	}
	JOINT mixamorig:LeftUpLeg
	{
		OFFSET 9.124500 -6.656403 -0.055400
		CHANNELS 3 Xrotation Yrotation Zrotation
		JOINT mixamorig:LeftLeg
		{
			OFFSET 0.244700 -40.595402 -0.517000
			CHANNELS 3 Xrotation Yrotation Zrotation
			JOINT mixamorig:LeftFoot
			{
				OFFSET -0.244700 -42.048000 -2.057600
				CHANNELS 3 Xrotation Yrotation Zrotation
				JOINT mixamorig:LeftToeBase
				{
					OFFSET 0.373400 -10.492200 12.640700
					CHANNELS 3 Xrotation Yrotation Zrotation
					JOINT mixamorig:LeftToe_End
					{
						OFFSET 0.000000 0.000000 9.992500
						CHANNELS 3 Xrotation Yrotation Zrotation
						End Site
						{
							OFFSET 0.000000 9.992500 0.000000
						}
					}
				}
			}
		}
	}
}
MOTION
Frames: 4
Frame Time: 0.033333
40.488918 52.914169 -6.852554 34.478317 -65.054635 -91.281592 17.696214 10.828368 -2.985927 7.841054 9.756291 -4.662174 7.960121 9.603083 -4.866705 0.474642 -4.115186 6.281004 13.075969 -19.287517 24.109347 -0.000000 -0.000001 -0.000001 -0.000000 -0.000001 -0.000001 -0.000000 -0.000001 -0.000001 0.907286 -8.561717 -0.000089 -31.635428 49.185316 -82.074825 0.000198 -104.289619 0.000181 -46.156318 -19.759531 76.871450 -0.637333 -4.563472 -5.950893 0.000001 0.005232 -0.051008 0.002588 -0.174348 1.701721 0.000000 -0.000000 0.000000 -23.329278 -10.861762 9.747893 4.135145 9.484809 1.779859 -7.692164 -2.715625 12.525671 -0.000002 -0.000002 0.000001 -2.334502 -15.124098 -8.712337 0.000103 0.034687 -0.338552 0.001953 -0.151412 1.477674 -0.000000 -0.000000 0.000001 0.597355 7.882835 -5.575935 0.000001 0.001624 -0.015758 0.005629 -0.257038 2.508953 -0.000000 0.000001 -0.000000 1.647633 21.118226 -4.023952 0.000057 0.026021 -0.253966 0.005647 -0.257452 2.513095 0.000000 0.000000 -0.000000 -0.965363 16.604323 26.612215 -68.720596 30.970875 84.871295 0.000009 60.242494 0.000005 -8.604011 20.513691 -44.027502 3.558503 9.846329 -16.725485 -0.000000 -0.000003 -0.000000 -0.000000 -0.000002 -0.000025 -0.000000 -0.000001 -0.000000 -4.957086 22.491808 -22.374882 6.358373 -14.447592 -2.112221 -7.845691 8.561190 -11.387877 -0.000002 0.000001 -0.000000 6.929590 22.348656 -15.505581 0.000001 0.000003 0.000003 0.000002 0.000007 0.000001 0.000000 0.000004 0.000001 0.303328 -0.755463 -17.693376 0.000000 -0.000001 -0.000000 -0.000000 0.000006 -0.000039 0.000000 -0.000001 0.000000 -3.749117 -13.123693 -18.830960 -0.000000 0.000001 0.000001 0.000001 -0.000001 0.000011 0.000000 0.000000 0.000000 10.494960 -16.460563 12.056147 104.028815 -7.489284 0.346910 17.059982 2.585658 25.027876 -0.994229 -0.000004 -0.000017 -0.000001 0.000003 0.000004 -67.701566 48.921797 -6.193637 120.684716 12.579465 4.438930 17.705365 -0.562800 -26.546599 -1.748385 -0.000003 -0.000017 -0.000001 0.000000 -0.000000 
40.104740 52.922020 -7.349251 35.901981 -65.265620 -89.008498 17.189069 10.731576 -3.021783 7.679802 9.635105 -4.763727 7.806498 9.481605 -4.958188 0.524944 -4.137593 6.290748 13.403315 -19.368284 23.976628 -0.000000 0.000000 0.000002 -0.000000 0.000000 0.000002 -0.000000 0.000000 0.000002 0.963993 -8.506738 -0.122622 -31.989758 48.698617 -81.838275 0.000070 -103.931703 0.000062 -45.673642 -19.273139 77.146270 -0.625907 -4.521792 -5.891973 0.000011 0.011413 -0.111487 0.002359 -0.166367 1.623621 -0.000000 0.000000 -0.000000 -23.333419 -11.023122 9.663089 4.211585 9.680114 1.744084 -7.686325 -2.682737 12.534558 0.000000 -0.000001 0.000001 -2.293614 -15.069595 -8.602285 0.000083 0.031295 -0.305390 0.001998 -0.153133 1.494435 0.000000 0.000001 0.000000 0.586468 7.866449 -5.470009 0.000001 0.004989 -0.048611 0.005379 -0.251246 2.452286 -0.000000 0.000000 0.000000 1.607279 21.073268 -3.909740 0.000058 0.026028 -0.253966 0.005556 -0.255379 2.492964 0.000000 0.000000 0.000000 -0.928928 16.155105 26.431123 -68.059078 30.236694 84.965607 0.000037 63.281136 -0.000022 -6.980002 22.816761 -46.838476 3.407252 9.671626 -16.242782 -0.000001 -0.001900 0.023169 0.000001 0.001362 -0.016642 -0.000000 0.000002 0.000000 -5.117104 22.440276 -22.201166 6.425655 -14.604722 -2.099924 -7.760770 8.234687 -11.453615 -0.000001 -0.000001 0.000001 6.611588 22.120485 -14.908346 -0.000000 0.000000 0.000001 0.000003 0.002164 -0.026625 0.000001 -0.000000 -0.000000 0.255696 -0.905339 -17.334245 0.000001 -0.004323 0.053046 -0.000002 -0.003925 0.048292 0.000000 0.000000 0.000000 -3.720061 -13.270608 -18.512844 -0.000001 -0.005626 0.069125 0.000002 -0.004054 0.049725 0.000001 0.000000 0.000000 9.978671 -15.839760 12.068845 102.726503 -6.605680 0.379550 16.604892 2.458749 25.668368 -1.285389 0.000008 -0.000006 0.000001 0.000001 0.000005 -68.587858 47.927246 -6.403214 120.911151 11.425604 4.062195 16.325020 -0.152886 -25.618102 -1.770735 0.000002 -0.000006 -0.000002 -0.000001 0.000001 
39.677017 52.711967 -7.863808 36.581547 -65.302134 -87.467744 16.941685 10.639321 -3.130753 7.380782 9.594536 -4.623736 7.510337 9.434632 -4.815617 0.615437 -4.201946 6.396178 13.536990 -19.403157 23.589735 0.000001 0.000001 0.000001 0.000001 0.000001 0.000001 0.000001 0.000001 0.000001 1.115268 -8.168167 -0.744895 -31.910500 48.410007 -82.158747 0.000201 -103.523852 0.000194 -45.001733 -18.885738 77.200542 -0.600081 -4.486447 -5.716685 0.000069 0.028439 -0.277492 0.001800 -0.145404 1.419324 0.000000 -0.000001 0.000000 -23.401131 -11.490033 9.489564 4.338135 10.017818 1.679120 -7.675589 -2.622237 12.550911 -0.000002 -0.000001 0.000000 -2.207581 -14.993788 -8.355051 0.000100 0.034272 -0.334503 0.001832 -0.146663 1.431255 -0.000000 -0.000002 -0.000001 0.568170 7.821157 -5.311713 0.000014 0.013262 -0.129318 0.004800 -0.237371 2.316960 -0.000000 0.000002 0.000000 1.574231 21.015065 -3.822354 0.000065 0.027407 -0.267459 0.005237 -0.247918 2.420061 0.000000 0.000000 0.000000 -0.832576 15.036301 26.080606 -66.850654 29.849853 85.302492 0.000021 69.426523 -0.000016 -1.138426 20.533591 -51.534071 2.991146 9.276380 -14.703350 0.000022 -0.015881 0.194890 0.000031 -0.015295 0.187812 0.000000 0.000001 0.000000 -5.418683 22.254165 -21.886588 6.577947 -14.957025 -2.062946 -7.687211 7.772345 -11.576024 -0.000001 0.000001 0.000003 5.727962 21.590822 -13.115344 -0.000001 -0.000004 -0.000001 -0.000003 0.001111 -0.013588 0.000000 0.000000 0.000000 0.160318 -1.234607 -16.007832 0.000023 -0.014519 0.178097 0.000019 -0.013241 0.162531 -0.000000 0.000001 -0.000000 -3.565149 -13.680073 -17.345936 0.000037 -0.017984 0.220722 0.000017 -0.012763 0.156727 0.000001 0.000002 0.000000 9.257202 -14.987585 11.507692 100.805717 -4.978914 0.352970 16.852793 2.463723 27.541607 -1.657157 0.000017 0.000000 0.000002 -0.000000 -0.000001 -71.878834 43.949655 -4.817354 120.169788 7.846501 2.618771 12.516007 0.956113 -21.923743 -2.041858 -0.000017 -0.000008 0.000002 -0.000001 0.000001 
39.237972 52.339725 -8.456223 36.707202 -64.882774 -86.725439 17.101501 10.514633 -3.254249 6.977755 9.571106 -4.247709 7.107721 9.395276 -4.454304 0.602413 -4.326216 6.678212 13.242331 -19.384777 23.155793 0.000000 0.000000 0.000000 0.000000 0.000000 0.000000 0.000000 0.000000 0.000000 1.344638 -7.631808 -1.823115 -31.316305 47.870265 -82.726739 0.000313 -103.487304 0.000328 -44.310753 -18.645850 77.344174 -0.560634 -4.462673 -5.425513 0.000279 0.057299 -0.559120 0.001037 -0.110336 1.076677 -0.000000 -0.000001 -0.000000 -23.538039 -12.284750 9.216211 4.530649 10.538432 1.577361 -7.658846 -2.527750 12.572125 0.000001 0.000001 0.000000 -2.086453 -14.889988 -8.001747 0.000148 0.041880 -0.408716 0.001521 -0.133571 1.303500 0.000001 0.000002 0.000000 0.547715 7.750328 -5.155211 0.000056 0.025740 -0.251175 0.003969 -0.215852 2.106724 -0.000000 0.000001 0.000000 1.555556 20.944405 -3.784198 0.000077 0.029894 -0.291791 0.004730 -0.235630 2.300015 0.000000 0.000000 0.000000 -0.701656 13.288471 25.562516 -64.495981 30.799109 85.913043 0.000004 76.666162 0.000033 8.370789 14.582852 -55.789911 2.358154 8.642006 -12.157110 0.000233 -0.046913 0.576108 0.000260 -0.049339 0.605615 0.000000 -0.000000 -0.000000 -5.869135 21.930245 -21.406556 6.820653 -15.518282 -2.003283 -7.588044 7.087238 -11.762023 0.000002 -0.000001 0.000001 4.356697 20.708700 -10.170955 -0.000002 -0.001785 0.021886 0.000004 -0.005922 0.072759 -0.000000 -0.000001 -0.000000 0.037223 -1.760151 -13.850698 0.000117 -0.033390 0.409994 0.000101 -0.030775 0.377874 -0.000000 -0.000004 -0.000001 -3.281958 -14.337021 -15.439482 0.000151 -0.037782 0.463756 0.000079 -0.026871 0.329890 0.000000 -0.000001 -0.000000 8.753255 -13.949320 9.874707 98.030932 -2.943197 0.301046 16.926259 2.726852 28.730525 -1.852234 0.000003 0.000005 -0.000000 -0.000001 -0.000003 -76.378071 37.315738 -2.154113 116.963615 6.350571 0.651220 5.453984 2.332055 -15.902164 -3.534680 -0.000039 0.000018 0.000001 0.000000 -0.000000 
